<?xml version="1.0" encoding="UTF-8"?>
<svg version="1.1" xmlns="http://www.w3.org/2000/svg" width="512" height="512">
<path d="M0 0 C19.8696293 15.63604351 27.2537845 41.07217178 30.3125 65.375 C30.43607425 68.07710012 30.52203856 70.75454955 30.55078125 73.45703125 C30.5605751 74.220121 30.57036896 74.98321075 30.58045959 75.76942444 C30.76570259 93.98882765 30.17221892 111.48719922 26.3125 129.375 C25.99901611 130.84453125 25.99901611 130.84453125 25.67919922 132.34375 C23.56619705 141.96701084 21.0300965 151.38549917 17.85546875 160.71484375 C17.22547974 162.58003662 17.22547974 162.58003662 16.58276367 164.48291016 C15.75790519 166.8885228 14.90908477 169.28610054 14.0324707 171.67333984 C11.357769 179.40577214 11.26880778 184.52419304 13.3125 192.375 C18.11036891 227.28905509 8.50137153 263.31915517 -12.6875 291.375 C-34.81143204 319.79753367 -34.81143204 319.79753367 -48.74609375 321.6484375 C-56.3493435 321.97304258 -61.93780741 319.69730378 -68.6875 316.375 C-69.27192871 316.09092285 -69.85635742 315.8068457 -70.45849609 315.51416016 C-87.84062526 306.97808661 -103.1375321 295.16693162 -116.6875 281.375 C-116.87542114 282.74881836 -116.87542114 282.74881836 -117.06713867 284.15039062 C-123.46379417 330.26432978 -123.46379417 330.26432978 -132.6875 339.375 C-139.26127557 342.41841462 -145.91427772 342.14958551 -152.6875 340 C-190.69010978 324.93542955 -214.63883829 286.99248889 -230.7902832 251.49560547 C-231.68723325 249.37563048 -232.43027077 247.23832699 -233.16796875 245.05859375 C-234.73494832 241.25997747 -235.71465932 239.94406401 -239 237.625 C-239.89460938 236.95597656 -240.78921875 236.28695312 -241.7109375 235.59765625 C-242.69320312 234.86417969 -243.67546875 234.13070312 -244.6875 233.375 C-253.11664059 226.57011446 -260.96126826 219.28131068 -268.625 211.625 C-269.41769287 210.83311279 -270.21038574 210.04122559 -271.02709961 209.2253418 C-301.62147675 178.34029708 -324.6766239 141.17269158 -343.6875 102.3125 C-344.22769775 101.2191333 -344.76789551 100.1257666 -345.32446289 98.99926758 C-349.88554323 89.52161409 -354.28735875 79.55988664 -354.1875 68.875 C-354.20296875 67.18890625 -354.20296875 67.18890625 -354.21875 65.46875 C-353.56581839 61.66638358 -352.4266511 60.06246901 -349.6875 57.375 C-347.28515625 56.046875 -347.28515625 56.046875 -344.75 55.125 C-343.49896484 54.65320313 -343.49896484 54.65320313 -342.22265625 54.171875 C-315.04860661 45.6302631 -280.41854208 64.74954292 -256.77001953 76.76318359 C-231.54294221 89.95415179 -209.21129012 106.89028323 -187.6875 125.375 C-187.66171875 124.76011719 -187.6359375 124.14523438 -187.609375 123.51171875 C-187.14805437 116.93789979 -187.14805437 116.93789979 -185 114.3125 C-181.88205597 113.04846864 -180.03295633 112.83972699 -176.6875 113.375 C-173.373431 115.77932457 -170.56367573 118.48185569 -167.6875 121.375 C-167.33171875 119.46074219 -167.33171875 119.46074219 -166.96875 117.5078125 C-165.74987157 112.05482315 -163.62164644 107.2597535 -161.1875 102.25 C-160.74607666 101.33492676 -160.30465332 100.41985352 -159.84985352 99.47705078 C-136.41062315 52.00024771 -84.60143489 12.36288804 -35.1875 -4.84375 C-22.74072165 -8.27296444 -10.79681586 -7.48619 0 0 Z " fill="#F3A75D" transform="translate(417.6875,88.625)"/>
<path d="M0 0 C19.8696293 15.63604351 27.2537845 41.07217178 30.3125 65.375 C30.43607425 68.07710012 30.52203856 70.75454955 30.55078125 73.45703125 C30.56547203 74.60166588 30.56547203 74.60166588 30.58045959 75.76942444 C30.76571755 93.99029962 30.16693467 111.48510667 26.3125 129.375 C26.10351074 130.36000488 25.89452148 131.34500977 25.67919922 132.35986328 C22.10377413 148.74789782 16.82603214 164.55259914 11.3125 180.375 C10.6525 180.375 9.9925 180.375 9.3125 180.375 C7.9269734 178.31650334 6.64386412 176.25386282 5.375 174.125 C-8.98080022 150.99899308 -31.82329691 137.04312788 -57.625 129.625 C-58.64255371 129.32686401 -58.64255371 129.32686401 -59.68066406 129.02270508 C-71.83963446 125.71962194 -84.33306106 125.00701171 -96.875 125.0625 C-97.88188873 125.06573273 -97.88188873 125.06573273 -98.90911865 125.06903076 C-117.38425652 125.16359006 -133.8511235 128.27636379 -151.46337891 133.69580078 C-154.52656761 134.63123338 -157.60499723 135.50557614 -160.6875 136.375 C-161.84377814 134.82021347 -162.9871219 133.25580281 -164.125 131.6875 C-164.76308594 130.81738281 -165.40117187 129.94726562 -166.05859375 129.05078125 C-167.76526632 126.24725437 -168.52153134 124.64067742 -168.6875 121.375 C-168.03505941 118.86561312 -167.32196111 116.64360798 -166.375 114.25 C-166.10719727 113.55986816 -165.83939453 112.86973633 -165.56347656 112.15869141 C-153.86488886 83.04206218 -134.09978861 58.8345797 -109.6875 39.375 C-108.96691406 38.76398438 -108.24632812 38.15296875 -107.50390625 37.5234375 C-83.37032462 17.30457232 -31.95872647 -22.15922747 0 0 Z " fill="#EB613E" transform="translate(417.6875,88.625)"/>
<path d="M0 0 C12.14497613 8.71016279 23.6668179 18.14201803 35 27.875 C35.02578125 27.26011719 35.0515625 26.64523438 35.078125 26.01171875 C35.53944563 19.43789979 35.53944563 19.43789979 37.6875 16.8125 C40.80544403 15.54846864 42.65454367 15.33972699 46 15.875 C51.08390558 19.4460007 53.67520279 23.16165594 56.5 28.625 C58.77468133 32.92439768 61.08917131 37.07713494 63.8515625 41.0859375 C67.67072298 46.72155746 70.76276355 52.70308803 73.875 58.75 C74.33437958 59.64122055 74.33437958 59.64122055 74.80303955 60.55044556 C82.11940751 74.78100268 88.18341461 89.09652486 93.3125 104.25 C93.63847168 105.21252686 93.96444336 106.17505371 94.30029297 107.16674805 C98.49312154 119.93621371 100.63690458 132.52865592 101.93530273 145.85913086 C102.18754016 148.43791057 102.45513371 151.01476752 102.72460938 153.59179688 C103.61962563 162.37574662 104.2901857 171.03267479 104 179.875 C94.71699477 172.40823493 87.29333271 163.54570199 80.25 154 C79.71938965 153.29391602 79.1887793 152.58783203 78.64208984 151.86035156 C69.50052956 139.20544107 64.99480877 123.99696943 59.8125 109.4375 C58.68428792 106.28752328 57.55414051 103.13824509 56.42393494 99.98898315 C55.67507525 97.90177112 54.92691168 95.81430919 54.17945862 93.72659302 C51.9842216 87.59834915 49.76756779 81.47872737 47.515625 75.37109375 C47.25750534 74.67085587 46.99938568 73.97061798 46.73344421 73.24916077 C45.5671514 70.08867972 44.39705617 66.92966249 43.22387695 63.77172852 C41.28110386 58.51181712 39.42626567 53.29948582 38 47.875 C19.20022038 54.62976978 3.04633648 63.80497416 -5.82324219 82.49804688 C-13.54378858 99.69639784 -15.92730142 119.23762453 -11.32885742 137.69238281 C-10.97121431 140.06604979 -11.26423632 141.61002097 -12 143.875 C-15.36100646 141.24195346 -18.6861998 138.56720016 -22 135.875 C-22.76304443 135.2560083 -22.76304443 135.2560083 -23.54150391 134.62451172 C-31.41126084 128.19228727 -38.74739289 121.30814468 -45.9375 114.125 C-46.73019287 113.33311279 -47.52288574 112.54122559 -48.33959961 111.7253418 C-78.93397675 80.84029708 -101.9891239 43.67269158 -121 4.8125 C-121.54019775 3.7191333 -122.08039551 2.6257666 -122.63696289 1.49926758 C-127.19804323 -7.97838591 -131.59985875 -17.94011336 -131.5 -28.625 C-131.51546875 -30.31109375 -131.51546875 -30.31109375 -131.53125 -32.03125 C-130.87831839 -35.83361642 -129.7391511 -37.43753099 -127 -40.125 C-124.59765625 -41.453125 -124.59765625 -41.453125 -122.0625 -42.375 C-120.81146484 -42.84679687 -120.81146484 -42.84679687 -119.53515625 -43.328125 C-82.59699596 -54.93888725 -28.69497274 -20.18414083 0 0 Z " fill="#00A2E0" transform="translate(195,186.125)"/>
<path d="M0 0 C2.01357175 3.02035763 2.79755029 5.30658711 3.80151367 8.76831055 C6.01942211 16.17112273 8.56384292 23.43580092 11.17578125 30.70703125 C11.66905343 32.08498365 12.16223063 33.46297005 12.65531921 34.84098816 C13.68277481 37.70992506 14.71258247 40.57800463 15.74389648 43.44555664 C16.78818748 46.35009251 17.82848667 49.2560062 18.86499023 52.16333008 C27.75294707 79.6924865 27.75294707 79.6924865 41.75 104.6875 C42.25877686 105.38464111 42.76755371 106.08178223 43.29174805 106.80004883 C50.00178535 115.88126333 56.96035228 125.12200717 66 132 C66.33 132 66.66 132 67 132 C67.48002643 151.62241382 65.09137093 176.27975832 54 193 C49.56846621 196.85644926 45.10081902 197.40252908 39.2734375 197.26171875 C17.02433623 194.7003961 -4.01415108 172.80985289 -17.35742188 156.32275391 C-29.71095992 140.70560386 -38.94500386 123.14518953 -47 105 C-47.37769531 104.14921875 -47.75539062 103.2984375 -48.14453125 102.421875 C-55.43352935 81.78635528 -54.28603694 56.47317679 -45.31420898 36.63793945 C-41.641014 29.02745188 -37.14311161 22.8613175 -31 17 C-30.47277344 16.4534375 -29.94554687 15.906875 -29.40234375 15.34375 C-21.6457151 7.88469022 -10.2259214 2.87043408 0 0 Z " fill="#74BF5A" transform="translate(233,233)"/>
<path d="M0 0 C0.66 0 1.32 0 2 0 C9.07240568 35.49935665 3.24183616 72.20717034 -16.75 102.6875 C-26.21635942 116.59425567 -39.50502384 134.50167461 -56 140 C-64.34300383 141.10817888 -70.5997132 138.64253638 -78 135 C-78.58442871 134.71592285 -79.16885742 134.4318457 -79.77099609 134.13916016 C-93.53511223 127.37983243 -105.66035327 118.63524158 -117.140625 108.50390625 C-119.85323341 106.06482932 -119.85323341 106.06482932 -122.296875 104.27734375 C-126.38614154 100.9738247 -127.48495518 98.11209447 -128.25 92.9375 C-128.43690747 90.87736429 -128.61996412 88.81672925 -128.77441406 86.75390625 C-129.05321684 83.35033983 -129.41298537 79.95838312 -129.7734375 76.5625 C-130.3333365 71.24995778 -130.8873336 65.93704051 -131.4140625 60.62109375 C-131.5270166 59.4911499 -131.6399707 58.36120605 -131.75634766 57.19702148 C-131.99112066 54.11650799 -132.04372679 51.08798568 -132 48 C-131.40687012 48.19634033 -130.81374023 48.39268066 -130.20263672 48.5949707 C-127.42915587 49.50828165 -124.6521411 50.41038292 -121.875 51.3125 C-120.94300781 51.62123047 -120.01101563 51.92996094 -119.05078125 52.24804688 C-105.91418819 56.49286436 -93.44988083 58.55879019 -79.6875 58.4375 C-78.96454742 58.43479095 -78.24159485 58.43208191 -77.49673462 58.42929077 C-66.54137062 58.36706933 -56.41575709 57.67260799 -46 54 C-44.91589844 53.63777344 -43.83179688 53.27554688 -42.71484375 52.90234375 C-35.26126663 50.12256467 -29.0635772 46.12015054 -23 41 C-21.84371094 40.02740234 -21.84371094 40.02740234 -20.6640625 39.03515625 C-12.88895491 31.49193783 -9.2711548 21.46161677 -5.12255859 11.64404297 C-3.46518695 7.74031636 -1.73481834 3.86979588 0 0 Z " fill="#FECB35" transform="translate(427,270)"/>
<path d="M0 0 C2.01346743 3.02020114 2.7961284 5.30447531 3.79931641 8.76611328 C6.02191997 16.18474639 8.5838598 23.45903299 11.2109375 30.7421875 C11.70669349 32.12250376 12.20226436 33.50288652 12.69766235 34.8833313 C13.72947225 37.75640889 14.76336388 40.62872577 15.79882812 43.50048828 C17.10911139 47.13489802 18.41432786 50.77110238 19.71797752 54.40789604 C20.73873642 57.25378871 21.76214602 60.09872288 22.78630447 62.94339371 C23.26777641 64.2816009 23.74849959 65.62007778 24.22837448 66.95885849 C27.61278263 76.39425838 31.22410598 85.71629491 35 95 C27.12958027 100.97283724 19.0565537 105.17370493 10 109 C8.75476563 109.54720703 8.75476563 109.54720703 7.484375 110.10546875 C-3.82476505 114.31673943 -18.0736261 113.44362323 -28.92578125 108.56640625 C-29.94027344 108.04949219 -30.95476562 107.53257812 -32 107 C-33.16917969 106.41089844 -34.33835938 105.82179688 -35.54296875 105.21484375 C-48.38214891 98.50313026 -48.38214891 98.50313026 -50.046875 94.453125 C-55.00460184 71.86792495 -52.91364414 48.80770801 -41.11621094 28.74365234 C-38.278276 24.31046527 -34.79258042 20.61860884 -31 17 C-30.47277344 16.4534375 -29.94554687 15.906875 -29.40234375 15.34375 C-21.6457151 7.88469022 -10.2259214 2.87043408 0 0 Z " fill="#00AA58" transform="translate(233,233)"/>
<path d="M0 0 C5.08390558 3.5710007 7.67520279 7.28665594 10.5 12.75 C12.77468133 17.04939768 15.08917131 21.20213494 17.8515625 25.2109375 C21.67072298 30.84655746 24.76276355 36.82808803 27.875 42.875 C28.18125305 43.46914703 28.4875061 44.06329407 28.80303955 44.67544556 C36.11940751 58.90600268 42.18341461 73.22152486 47.3125 88.375 C47.80145752 89.81879028 47.80145752 89.81879028 48.30029297 91.29174805 C52.49312154 104.06121371 54.63690458 116.65365592 55.93530273 129.98413086 C56.18754016 132.56291057 56.45513371 135.13976752 56.72460938 137.71679688 C57.61962563 146.50074662 58.2901857 155.15767479 58 164 C48.71699477 156.53323493 41.29333271 147.67070199 34.25 138.125 C33.71938965 137.41891602 33.1887793 136.71283203 32.64208984 135.98535156 C23.50204842 123.33254367 18.98900665 108.12196508 13.8125 93.5625 C12.30545599 89.33780013 10.79590362 85.11400185 9.28515625 80.890625 C8.91578949 79.85633865 8.54642273 78.82205231 8.16586304 77.75642395 C6.06109187 71.88405785 3.89416772 66.04356842 1.62109375 60.234375 C-13.78592773 20.66766274 -13.78592773 20.66766274 -10 3 C-7.13201878 -0.39908885 -4.29002096 -0.68640335 0 0 Z " fill="#2264A8" transform="translate(241,202)"/>
</svg>
